<svg width="512" height="512" viewBox="0 0 512 512" fill="none" xmlns="http://www.w3.org/2000/svg">
<path d="M131.593 213.585H69.3344C34.3558 213.585 6 232.508 6 255.849C6 279.191 34.3558 298.114 69.3344 298.114H131.593C166.571 298.114 194.927 279.191 194.927 255.849C194.927 232.508 166.571 213.585 131.593 213.585Z" fill="#1597D5" stroke="#1597D5" stroke-width="0.755948" stroke-miterlimit="22.9256"/>
<path d="M228.021 121.176L197.441 64.0804C180.26 32.0035 150.677 15.2941 131.365 26.759L131.364 26.7594C112.052 38.2243 110.324 73.5219 127.504 105.599L158.085 162.695C175.265 194.772 204.849 211.481 224.161 200.016L224.162 200.016C243.474 188.551 245.202 153.253 228.021 121.176Z" fill="#0D9DA5" stroke="#0D9DA5" stroke-width="0.813693" stroke-miterlimit="22.9256"/>
<path d="M442.665 213.585H380.407C345.428 213.585 317.073 232.508 317.073 255.849C317.073 279.191 345.428 298.114 380.407 298.114H442.665C477.644 298.114 506 279.191 506 255.849C506 232.508 477.644 213.585 442.665 213.585Z" fill="#EB5435" stroke="#EB5435" stroke-width="0.755948" stroke-miterlimit="22.9256"/>
<path d="M283.98 121.176L314.56 64.0804C331.741 32.0035 361.324 15.2941 380.636 26.759L380.637 26.7594C399.949 38.2243 401.677 73.5219 384.497 105.599L353.916 162.695C336.736 194.772 307.152 211.481 287.84 200.016L287.839 200.016C268.527 188.551 266.799 153.253 283.98 121.176Z" fill="#F5A62D" stroke="#F5A62D" stroke-width="0.813693" stroke-miterlimit="22.9256"/>
<path d="M228.021 390.824L197.441 447.92C180.26 479.997 150.677 496.706 131.365 485.241L131.364 485.241C112.052 473.776 110.324 438.478 127.504 406.401L158.085 349.305C175.265 317.228 204.849 300.519 224.161 311.984L224.162 311.984C243.474 323.449 245.202 358.747 228.021 390.824Z" fill="#19476B" stroke="#19476B" stroke-width="0.813693" stroke-miterlimit="22.9256"/>
<path d="M283.98 390.824L314.56 447.92C331.741 479.997 361.324 496.706 380.636 485.241L380.637 485.241C399.949 473.776 401.677 438.478 384.497 406.401L353.916 349.305C336.736 317.228 307.152 300.519 287.84 311.984L287.839 311.984C268.527 323.449 266.799 358.747 283.98 390.824Z" fill="#E71552" stroke="#E71552" stroke-width="0.813693" stroke-miterlimit="22.9256"/>
</svg>
