<svg xmlns="http://www.w3.org/2000/svg" width="147" height="53" viewBox="0 0 147 53" fill="none"><path d="M14.784 21.6401H7.95103C4.11208 21.6401 1 23.6127 1 26.0461C1 28.4794 4.11208 30.452 7.95103 30.452H14.784C18.6229 30.452 21.735 28.4794 21.735 26.0461C21.735 23.6127 18.6229 21.6401 14.784 21.6401Z" fill="#1597D5" stroke="#1597D5" stroke-width="0.755948" stroke-miterlimit="22.9256"></path><path d="M25.3672 12.0068L22.011 6.05471C20.1254 2.71078 16.8786 0.968884 14.759 2.16406L14.7589 2.16411C12.6394 3.35929 12.4497 7.03896 14.3353 10.3829L17.6916 16.335C19.5772 19.6789 22.824 21.4208 24.9435 20.2256L24.9436 20.2256C27.0632 19.0304 27.2528 15.3507 25.3672 12.0068Z" fill="#0D9DA5" stroke="#0D9DA5" stroke-width="0.813693" stroke-miterlimit="22.9256"></path><path d="M48.9246 21.6401H42.0917C38.2527 21.6401 35.1406 23.6127 35.1406 26.0461C35.1406 28.4794 38.2527 30.452 42.0917 30.452H48.9246C52.7635 30.452 55.8756 28.4794 55.8756 26.0461C55.8756 23.6127 52.7635 21.6401 48.9246 21.6401Z" fill="#EB5435" stroke="#EB5435" stroke-width="0.755948" stroke-miterlimit="22.9256"></path><path d="M31.5086 12.0068L34.8649 6.05471C36.7505 2.71078 39.9973 0.968884 42.1168 2.16406L42.1169 2.16411C44.2365 3.35929 44.4261 7.03896 42.5405 10.3829L39.1842 16.335C37.2987 19.6789 34.0519 21.4208 31.9323 20.2256L31.9322 20.2256C29.8127 19.0304 29.623 15.3507 31.5086 12.0068Z" fill="#F5A62D" stroke="#F5A62D" stroke-width="0.813693" stroke-miterlimit="22.9256"></path><path d="M25.3672 40.1167L22.011 46.0688C20.1254 49.4128 16.8786 51.1547 14.759 49.9595L14.7589 49.9594C12.6394 48.7642 12.4497 45.0846 14.3353 41.7407L17.6916 35.7886C19.5772 32.4447 22.824 30.7028 24.9435 31.8979L24.9436 31.898C27.0632 33.0932 27.2528 36.7728 25.3672 40.1167Z" fill="#19476B" stroke="#19476B" stroke-width="0.813693" stroke-miterlimit="22.9256"></path><path d="M31.5086 40.1167L34.8649 46.0688C36.7505 49.4128 39.9973 51.1547 42.1168 49.9595L42.1169 49.9594C44.2365 48.7642 44.4261 45.0846 42.5405 41.7407L39.1842 35.7886C37.2987 32.4447 34.0519 30.7028 31.9323 31.8979L31.9322 31.898C29.8127 33.0932 29.623 36.7728 31.5086 40.1167Z" fill="#E71552" stroke="#E71552" stroke-width="0.813693" stroke-miterlimit="22.9256"></path><path fill-rule="evenodd" clip-rule="evenodd" d="M132.206 39.9297C132.581 39.9216 132.539 39.8324 132.808 39.7242C133.167 39.5794 133.887 39.6593 134.293 39.6715C134.773 39.6859 134.626 39.8412 134.778 39.9057L135.391 39.9548L136.264 40.8741C136.272 40.8834 136.283 40.899 136.292 40.9077L136.487 41.4651C136.849 41.4777 136.729 41.623 136.738 42.1792L136.969 42.3016L136.986 50.1456C137.3 50.1527 137.22 50.0706 137.232 50.4054L138.231 50.356L138.278 49.9042C138.557 49.8938 138.424 49.8987 138.509 49.8344L138.526 42.2392L138.742 42.2394L138.785 41.5055C139.066 41.3558 139.01 41.3388 139.038 41.0156C139.353 40.8806 139.122 41.0021 139.294 40.8173C139.303 40.8075 139.314 40.7938 139.324 40.7843L139.682 40.4639C139.772 40.3915 139.794 40.6348 139.82 40.242L140.253 40.2006L140.351 39.94L141.021 39.9015C141.035 39.6816 141 39.801 141.086 39.6766L142.829 39.673L142.923 39.9L143.536 39.9415C143.705 40.1528 143.498 40.1762 144.121 40.2414L144.17 40.6814C144.631 40.7065 144.301 40.7046 144.433 40.8555C144.441 40.8651 144.45 40.8812 144.459 40.8903C144.68 41.1301 144.623 40.9658 144.662 41.3829C144.794 41.4814 144.791 41.4462 144.897 41.6203C144.979 41.7551 144.98 41.7332 145.092 41.8119C145.174 44.0365 145.153 46.261 145.153 48.4869C145.153 48.8737 145.148 49.2652 145.158 49.6514C145.165 49.9168 145.193 50.0168 145.342 50.1649L145.475 50.3387C145.479 50.3292 145.487 50.3671 145.495 50.398L146.398 50.3799L146.45 49.9569C146.575 49.8756 146.311 50.0376 146.546 49.9099C146.696 49.8286 146.584 49.8984 146.669 49.8344C146.738 47.4084 146.713 44.9734 146.677 42.5466L146.387 40.7705C146.219 40.6702 146.604 40.8901 146.284 40.7233C146.196 40.6774 146.218 40.6923 146.164 40.6477L146.135 40.2806L145.451 39.5992C145.442 39.5904 145.43 39.5772 145.421 39.5684C145.413 39.5595 145.401 39.5458 145.392 39.5368C145.383 39.5279 145.372 39.5142 145.363 39.5052L145.075 39.2362C145.065 39.2274 145.05 39.2173 145.04 39.2085C144.832 39.0285 144.887 39.3568 144.876 38.941C144.49 38.9318 144.693 38.9679 144.577 38.7234L143.647 38.6553L143.535 38.4071L141.147 38.4072C141.039 38.5344 141.09 38.5299 141.013 38.6515L140.285 38.6899C140.277 38.9124 140.307 38.8052 140.228 38.903L139.797 38.9396C139.79 39.1912 139.812 39.0601 139.738 39.1636L139.329 39.2046L139.284 39.6067C138.86 39.8306 139.166 39.5149 138.942 39.9432L138.539 39.9855L138.505 40.4677L137.746 40.4402L137.701 40.0355C137.448 39.887 137.629 40.0661 137.48 39.848L137.132 39.4597C137.004 39.3388 136.992 39.6326 136.979 39.1918L136.5 39.1527C136.481 38.5751 136.216 39.276 136.2 38.6894L135.485 38.662L135.459 38.4408L134.533 38.4106C133.525 38.4125 133.23 38.2633 133.063 38.6524L132.451 38.6636L132.328 38.9032L131.961 38.9377L131.805 39.1467C131.728 39.2076 131.776 39.1546 131.692 39.2159C131.682 39.2232 131.668 39.2337 131.658 39.2413C131.649 39.2485 131.636 39.2611 131.627 39.2689L131.403 39.4767C131.326 39.5519 131.373 39.5123 131.312 39.5764L131.137 39.7627C131.076 39.8417 131.123 39.7976 131.065 39.8725L130.978 39.9662C130.698 40.2667 130.935 40.2411 130.323 40.2585L130.32 38.9942C130.052 38.8247 130.074 39.143 130.058 38.6936C129.512 38.6687 129.397 38.667 128.846 38.7029C128.693 40.8993 128.793 47.7174 128.817 50.0791L128.911 50.1217C129.044 50.2064 129.055 50.2234 129.06 50.4081L129.843 50.4077C129.852 49.9934 129.901 50.2386 130.09 50.0534C130.269 49.8788 130.279 49.965 130.302 49.655C130.308 49.5728 130.293 49.381 130.292 49.2829C130.29 48.1045 130.223 43.8183 130.296 42.7284C130.303 42.628 130.342 42.4108 130.368 42.3561C130.431 42.2228 130.461 42.2636 130.569 42.1788L130.578 41.8114C130.7 41.7055 130.553 41.7548 130.808 41.6886L130.848 41.2603L131.072 41.1369L131.123 40.7703C131.136 40.7632 131.27 40.6988 131.274 40.6961L131.451 40.5016C131.557 40.3917 131.622 40.2732 131.776 40.2184C132.33 40.0207 131.969 40.2512 132.206 39.9297Z" fill="#1597D5"></path><path fill-rule="evenodd" clip-rule="evenodd" d="M94.052 39.9285C94.1705 39.6926 93.7288 39.6386 95.5831 39.6736C96.6555 39.6938 96.642 39.5827 96.6528 39.9246L97.1141 39.9595C97.2189 40.2125 97.4862 40.3653 97.6833 40.5715L98.1539 41.0104C98.1633 41.0196 98.1753 41.0334 98.1845 41.0428L98.434 41.2605L98.4772 41.6845C98.7162 41.6975 98.5806 41.6684 98.7015 41.75L98.7287 42.2335C99.113 42.2495 98.8201 42.2216 98.969 42.4107C99.2042 42.7096 99.1117 42.3834 99.15 42.6078L99.184 43.7866L91.2855 43.7768L91.3172 42.7338L91.52 42.7334L91.5687 42.0566C91.6573 41.9933 91.5567 42.0052 91.7786 42.0021L91.831 41.5054C91.9935 41.4445 92.0568 41.3461 92.2323 41.1531L92.3482 41.0142C92.3569 41.0054 92.3702 40.9929 92.379 40.9845L93.0126 40.3986C93.3109 40.1164 92.9438 40.391 93.5999 40.0064C93.7533 39.9165 93.8655 39.9343 94.052 39.9285ZM100.731 44.5245L100.691 42.5465C100.672 42.5383 100.606 42.5177 100.594 42.5116C100.483 42.455 100.545 42.4929 100.465 42.424L100.452 41.7842L100.228 41.7645L100.196 41.2604L100.004 41.1265C99.8278 40.8506 100.018 40.9581 99.6843 40.5911L99.3251 40.2127C99.3167 40.2038 99.3032 40.192 99.2949 40.1829C99.2865 40.1737 99.274 40.1609 99.2658 40.1515L98.9694 39.9126L98.9066 39.4723L98.5226 39.4265C98.513 39.4137 98.5019 39.3944 98.4969 39.3856C98.492 39.377 98.4779 39.3555 98.4723 39.3455L97.9715 39.1572C97.8596 38.9785 98.0726 39.3441 97.9195 39.0501C97.8269 38.872 97.6455 38.918 97.4549 38.9057L97.4353 38.674L96.6854 38.642C96.4835 38.2782 96.6189 38.3929 95.1543 38.3926C94.0729 38.3924 94.1974 38.2612 94.0516 38.6355L93.1332 38.6983C92.9665 38.9686 92.9746 38.9103 92.6433 38.9408C92.5312 39.0973 92.3562 39.2181 92.2748 39.3867L91.7441 39.6223C91.7354 39.6312 91.7197 39.6419 91.7102 39.6508L91.5536 39.8042C91.0829 40.3814 91.0854 40.0942 91.0212 40.6481C90.909 40.7146 90.9429 40.6628 90.8461 40.7531L90.7028 40.9169C90.6947 40.9256 90.6804 40.9367 90.6723 40.9454L90.5231 41.2258C90.3935 41.6676 90.2725 41.4366 90.239 41.9812C89.8919 41.9964 90.027 42.1151 89.9855 42.7266C89.6592 42.736 89.8691 42.7202 89.7504 42.7917L89.7823 46.3123L90.0053 46.3293L90.0317 47.0173C90.3744 47.2525 90.1359 47.0256 90.3174 47.4434L90.5602 47.9417C90.6649 48.2158 90.5697 47.9801 90.7438 48.1713L91.0938 48.5665C91.3429 48.7971 91.2561 48.609 91.3273 49.0384C91.6753 49.2189 91.4508 48.9281 91.6028 49.3554L92.0385 49.3982L92.0927 49.6192L92.5208 49.6727C92.6678 49.9285 92.6766 49.8902 93.0108 49.927L93.1333 50.1465L93.5743 50.163L93.6156 50.3787C93.8787 50.3878 94.1529 50.4036 94.4179 50.4164C94.8587 50.4375 94.7983 50.611 94.9703 50.6525L96.1581 50.6497C96.1801 50.3421 96.4364 50.4171 96.9289 50.4121C98.2366 50.3985 97.1791 50.1878 98.0937 50.1572C98.1781 50.0662 98.1223 50.1435 98.1869 50.0292C98.1942 50.0162 98.2101 49.9476 98.2162 49.9283L98.6449 49.8851C98.8281 49.609 98.7442 49.6679 99.1348 49.6282L99.5649 49.1522C99.8866 48.8509 99.5918 48.9251 100.198 48.8136L100.195 47.9121C99.5767 47.8311 99.566 47.8695 98.9758 47.8971C98.9519 48.3383 98.9877 47.9949 98.7727 48.1868L98.2801 48.6145C98.0618 48.7642 98.2431 48.5883 98.0937 48.8292C97.2707 48.9071 97.5424 48.8628 97.3588 49.1351L96.3895 49.1761L96.3177 49.3654C95.8414 49.3792 95.3471 49.4371 94.8708 49.3571C94.5768 49.3078 94.6483 49.3726 94.6326 49.1551L93.868 49.1144C93.7033 48.8044 93.9221 48.8926 93.3524 48.8629L93.2552 48.6303L92.8394 48.583C92.8285 48.2526 92.7974 48.4802 92.4182 48.0934L91.9425 47.3574C91.935 47.3482 91.9217 47.3363 91.9139 47.3273C91.9059 47.3181 91.8926 47.3061 91.8846 47.297L91.7423 47.1213C91.6384 47.0176 91.696 47.0889 91.5766 47.0167L91.5257 46.4048L91.3102 46.2823L91.2828 45.024L100.442 45.0166L100.509 44.5407L100.731 44.5245Z" fill="#1597D5"></path><path fill-rule="evenodd" clip-rule="evenodd" d="M118.916 39.6887L121.366 39.7084C121.541 40.0387 121.393 39.9452 121.935 39.9509L121.979 40.172L122.427 40.213L122.469 40.4239L122.897 40.4844C123.045 40.8546 122.853 40.5139 123.252 40.9076L123.499 41.1527C123.907 41.5635 123.542 41.4889 123.921 41.5122L123.974 41.9342C124 41.9537 124.101 42.0151 124.103 42.0165C124.396 42.2959 123.956 41.9739 124.438 42.302L124.481 42.9957L124.699 43.0366L124.708 45.6132C124.702 46.5848 124.487 45.6105 124.456 46.5274C124.205 46.6811 124.363 46.4498 124.245 46.7086C124.217 46.7702 124.197 46.91 124.152 46.9851L124.096 47.054C124.088 47.0655 124.073 47.0763 124.065 47.0882C123.95 47.2471 123.958 47.262 123.951 47.5254C123.925 47.5417 123.832 47.5762 123.802 47.5979L123.142 48.3325C122.649 48.3822 122.812 48.4134 122.648 48.5475C122.639 48.5554 122.624 48.5658 122.614 48.5732C122.374 48.7522 122.424 48.4943 122.407 48.8435C121.488 48.8734 121.761 48.9592 121.611 49.13C121.173 49.1332 120.756 49.1696 120.325 49.1784L118.838 49.126L118.794 48.8981L118.426 48.8719L118.304 48.6562L117.802 48.6053L117.801 48.3991L117.385 48.3421C117.237 48.0539 117.542 48.1158 117.097 48.1004L117.041 47.6912L116.832 47.5803C116.731 47.4855 116.826 47.5661 116.745 47.4762L116.495 47.1748C116.268 46.8908 116.322 47.2799 116.265 46.5999C115.98 46.5857 116.125 46.5894 116.048 46.5277L116.006 45.854C115.753 45.7235 115.889 45.9472 115.799 45.6717C115.723 45.4374 115.788 43.2529 115.806 43.0369C115.817 43.0282 115.835 43.0184 115.842 43.0143L116.006 42.9136L116.084 42.0328L116.487 41.9568L116.525 41.4943L116.87 41.2284C116.879 41.22 116.895 41.2102 116.904 41.2024L117.401 40.726C117.411 40.7169 117.426 40.7059 117.435 40.6969L117.621 40.5146C118.084 40.0725 117.873 40.3035 118.185 40.162C118.418 40.0562 118.208 40.2179 118.376 39.9371L118.794 39.9377L118.916 39.6887ZM116.01 49.0864L116.315 49.2586C116.511 49.5159 116.347 49.1846 116.65 49.6089L117.089 49.6563L117.09 49.9238L117.508 49.9148L117.63 50.1301L118.304 50.1834L118.427 50.409L119.284 50.4222C119.361 50.508 119.338 50.3964 119.349 50.639L120.754 50.6463C121.068 50.5171 120.547 50.8109 120.83 50.5868C121.166 50.3202 121.68 50.4091 122.101 50.3763L122.145 50.3029C122.15 50.295 122.161 50.275 122.165 50.2674C122.221 50.1713 122.172 50.235 122.224 50.1718L122.666 50.1397L122.713 49.9221L123.142 49.8966C123.21 49.8074 123.216 50.0261 123.215 49.6754L123.632 49.6357L125.428 47.774C125.451 47.7343 125.478 47.6053 125.499 47.5429C125.575 47.3156 125.559 47.415 125.609 47.3462C125.737 47.1699 125.638 47.4832 125.723 47.1402C125.745 47.0511 125.737 46.9811 125.735 46.8721L125.987 46.7722C125.991 46.6433 125.996 46.3327 126.024 46.2212C126.073 46.0239 126.1 46.0319 126.263 45.9759L126.236 42.7674L126.011 42.7495C126.007 42.4413 126.02 42.1717 125.847 41.9911C125.839 41.9823 125.824 41.9714 125.815 41.9625L125.572 41.6512C125.541 41.5923 125.52 41.4763 125.503 41.4218C125.366 40.9824 125.538 41.3531 125.246 41.1378L125.217 40.7109C124.927 40.7047 124.973 40.536 124.947 40.2805C124.629 40.1274 124.802 40.405 124.673 40.0059L124.26 39.9525L124 39.6138C123.762 39.3799 123.913 39.4474 123.466 39.4045C123.453 38.9521 123.461 39.2841 123.29 39.1438C123.144 39.0246 123.271 39.1725 123.143 38.9533L122.443 38.9124L122.424 38.6837C121.697 38.6581 121.688 38.7878 121.67 38.4238L118.917 38.4187L118.794 38.6487C118.587 38.6552 118.31 38.6509 118.113 38.6743C117.778 38.714 117.884 38.8645 117.753 38.9189L117.386 38.9402L117.026 39.3171C116.897 39.4355 116.823 39.4168 116.773 39.6253L116.345 39.6744L115.961 40.1344C115.952 40.143 115.938 40.1546 115.929 40.1632C115.917 40.1755 115.877 40.2087 115.864 40.2213L115.623 40.4735C115.614 40.4828 115.601 40.4957 115.592 40.5053L115.384 40.7331C115.376 40.7424 115.363 40.7551 115.354 40.7645L114.906 41.2295C114.86 41.2952 114.864 41.2622 114.825 41.3869C114.643 41.9623 114.826 41.6266 114.547 41.8115L114.527 42.179L114.298 42.3014C114.285 43.0245 114.229 43.7049 114.229 44.445C114.229 45.1796 114.279 45.8566 114.293 46.574C114.73 46.5878 114.321 46.7403 114.72 46.8946C114.734 47.2288 114.774 47.6112 114.943 47.802C114.951 47.8112 114.965 47.8229 114.973 47.8322L115.099 48.0171C115.107 48.0271 115.117 48.0419 115.125 48.0514L115.245 48.1722C115.253 48.1814 115.265 48.1951 115.274 48.2045L115.607 48.5505C115.689 48.6346 115.653 48.5862 115.732 48.6702C115.8 48.7438 115.77 48.7241 115.817 48.7737C115.898 48.8588 115.803 48.784 115.914 48.8625C115.919 48.8665 116.017 48.9062 116.044 48.9165L116.01 49.0864Z" fill="#1597D5"></path><path fill-rule="evenodd" clip-rule="evenodd" d="M75.8018 39.9839C76.6618 39.9074 76.3716 39.8718 76.5368 39.6775L79.0108 39.6989L79.0352 39.9167L79.4765 39.958C79.8352 40.4434 79.7427 40.1376 79.8457 40.415L80.2727 40.494C80.3944 40.8931 80.2018 40.6179 80.5487 40.7706C80.5595 40.8731 80.5486 40.9022 80.5813 41.0145C80.6295 41.1799 80.6586 41.136 80.7928 41.2906L80.9956 41.5233C81.0028 41.5324 81.0136 41.5468 81.0206 41.5562L81.1194 41.7086C81.2483 41.8737 81.2452 41.7283 81.2758 41.8731C81.3518 42.592 81.4118 43.0369 81.4085 43.7916L73.6621 43.7688L73.6977 42.5468C73.9128 42.4623 73.8479 42.5343 74.0174 42.2948C74.4299 41.7118 73.8545 41.9868 74.4145 41.6887L74.4739 41.2607C74.7364 41.1287 74.5364 41.2689 74.7569 41.0076L75.8018 39.9839ZM82.7834 44.8208C82.8928 44.6955 82.8749 44.6108 83.0222 44.4987L83.0945 42.8528C82.9669 42.5714 83.1315 42.8649 82.8781 42.6693L82.8222 41.8118C82.7332 41.7548 82.6999 41.7582 82.6101 41.7109L82.5657 41.2274C82.0196 41.2 82.7004 40.9625 82.1396 40.9427L81.9165 40.4123C81.9075 40.4035 81.8966 40.3885 81.8879 40.3792L80.7813 39.2312C80.769 39.1594 80.4622 39.1619 80.395 39.1539C80.3438 39.087 80.3375 39.2298 80.3367 38.9419C79.7095 38.8922 79.5845 39.0311 79.5798 38.6687L79.109 38.648L78.9865 38.4291C78.4819 38.4014 77.9628 38.4087 77.4554 38.4089C75.8514 38.4091 76.4435 38.5251 76.1687 38.6513L75.5284 38.6914L75.4342 38.9078L75.0058 38.9508C74.859 39.1951 75.0196 39.0141 74.8225 39.1772L74.7498 39.2319C74.5055 39.4647 74.7048 39.3879 74.2709 39.4474C74.2107 39.5275 74.2161 39.5531 74.1855 39.5895C74.1775 39.5988 74.1643 39.6118 74.1557 39.6209C74.1469 39.6301 74.1321 39.6413 74.123 39.6502L73.727 40.035C73.421 40.3363 73.4501 40.2232 73.3932 40.6943C72.8059 40.7161 73.5123 40.9456 72.9497 40.9614L72.8878 41.4444C72.6527 41.5738 72.7006 41.6834 72.4567 41.8118L72.4264 42.4242C72.2418 42.5856 72.3638 42.4515 72.1729 42.5467C72.1629 43.1825 72.1093 43.818 72.1113 44.4452C72.1135 45.1031 72.1793 45.6134 72.1885 46.2904C72.5404 46.3201 72.4427 46.7321 72.4396 47.0424L72.6742 47.1397L72.6898 47.5749C72.909 47.5823 72.7981 47.5579 72.9054 47.63L72.9553 48.0932C73.3209 48.1074 73.0354 48.0709 73.237 48.2992L73.7291 48.8439C73.8718 48.9959 73.9715 49.0067 73.9974 49.3147C74.096 49.3216 74.2825 49.3597 74.3388 49.3908C74.6488 49.5618 74.2803 49.5899 74.8834 49.6646L74.9451 49.7738C74.9954 49.865 74.9385 49.8488 75.0063 49.8828L75.4618 49.9215L75.4765 50.1364L75.9247 50.1663C75.9911 50.2567 75.9789 50.1466 75.9818 50.3844C76.2764 50.3884 76.6095 50.4003 76.9075 50.4111C77.4124 50.4293 77.4656 50.4085 77.4785 50.6592C78.8468 50.6489 78.1626 50.6334 78.6812 50.4665C78.7472 50.4451 78.9289 50.4201 79.0461 50.4133C80.7448 50.3161 79.6216 50.3539 80.3471 50.1547C80.7656 50.0398 80.4417 50.1934 80.6406 49.9218L81.0078 49.8945L81.131 49.675C81.3749 49.6443 81.5555 49.7466 81.5654 49.4117L82.0602 49.3568L82.1129 48.916L82.3107 48.8123C82.3205 48.8034 82.3317 48.7887 82.3408 48.7793L82.6012 48.1811L82.1049 47.7481C81.939 47.6018 81.9824 47.6508 81.8348 47.7767C81.639 47.9439 81.6785 47.8109 81.559 48.0958L81.0906 48.1484C81.07 48.7325 80.8405 48.0008 80.8259 48.5976L80.3732 48.6312L80.2731 48.8855L79.8298 48.9072C79.7998 49.287 79.4387 49.1509 78.8371 49.1617L78.7422 49.3807L77.3335 49.3696C77.0575 49.0784 77.4575 49.1675 76.2924 49.1412C76.0824 48.8088 76.3936 49.002 75.9609 48.879C75.569 48.7675 75.859 48.9322 75.6795 48.6354L75.2514 48.5779L74.7663 48.0499C74.6984 47.981 74.7368 48.0092 74.6799 47.9505L74.6202 47.8889C74.4049 47.7078 74.4841 47.804 74.433 47.3586L74.2186 47.3362L74.1725 46.895C74.0113 46.788 73.9697 46.6515 73.8065 46.5538C73.7951 46.5471 73.7289 46.535 73.7099 46.5277C73.6998 46.2213 73.6926 45.9143 73.6773 45.6083L73.74 44.8367L82.7834 44.8208Z" fill="#1597D5"></path><path fill-rule="evenodd" clip-rule="evenodd" d="M107.158 39.6945C107.738 39.6611 108.293 39.6764 108.873 39.6709C109.81 39.6623 109.379 39.8464 109.908 39.9307C110.008 39.9467 110.23 39.9497 110.342 39.9559L110.964 40.5769C110.973 40.5885 111.005 40.6668 111.016 40.6815L111.441 40.7185C111.452 41.1727 111.45 40.8564 111.596 40.9921L111.732 41.155C111.735 41.1456 111.743 41.183 111.751 41.2131L112.67 41.1832C112.84 40.8133 112.586 41.0579 112.951 40.893L112.946 40.2375C112.569 40.2242 112.856 40.2454 112.746 40.1439L112.424 39.7063L111.996 39.6537C111.866 39.408 111.993 39.5756 111.818 39.4224C111.504 39.1469 111.729 39.1992 111.204 39.1632C111.195 38.9007 111.208 39.0344 111.138 38.9425C110.811 38.9164 110.804 38.9725 110.649 38.6984L109.947 38.6688L109.853 38.4559L107.339 38.4112C106.747 38.4288 106.981 38.4411 106.79 38.6519L106.113 38.6908L106.056 38.907L105.565 39.0523C105.478 39.2077 105.303 39.1689 105.137 39.1842L105.096 39.2642C105.088 39.2769 105.048 39.3323 105.046 39.3346C105.038 39.3439 105.024 39.3561 105.015 39.3649C105.006 39.3739 104.99 39.3837 104.981 39.3924C104.852 39.5097 104.836 39.2207 104.811 39.6483L104.341 39.7027C104.231 39.9666 104.049 40.1134 103.818 40.2812L103.764 40.6888C103.32 40.7054 103.663 40.6773 103.531 40.8195L103.071 41.2605L103.038 41.7153L102.812 41.7457L102.798 42.2075L102.539 42.3017L102.524 42.914C102.378 43.0367 102.341 42.963 102.294 43.1165C102.209 43.3982 102.282 45.4019 102.283 45.7312C102.347 45.7821 102.204 45.7881 102.49 45.7935L102.534 46.5273C102.761 46.7157 102.781 46.4529 102.822 47.2622C103.024 47.3863 103.042 47.5176 103.253 47.6305L103.311 48.0583L104.093 48.8057C104.176 48.8872 104.104 48.8161 104.193 48.8882L104.647 49.3974L105.033 49.4337L105.106 49.8534L105.807 49.9175L105.806 50.1325L106.3 50.1625L106.423 50.375C106.871 50.4161 107.523 50.3105 107.895 50.5672C107.923 50.5862 107.892 50.6052 108.015 50.6554L108.75 50.6512C109.025 50.5988 108.534 50.783 108.905 50.5389C109.203 50.3425 109.999 50.3805 110.399 50.3669C110.414 50.0279 110.641 50.1513 110.894 50.1318C110.901 50.12 110.909 50.1015 110.913 50.0943C111.041 49.8565 111.122 49.909 111.384 49.8851L111.445 49.7711C111.452 49.7581 111.482 49.7187 111.486 49.6902C111.497 49.6137 111.805 49.6175 111.873 49.6093L111.988 49.4091C112.328 49.0748 112.163 49.121 112.688 49.0632L112.733 48.6108C113.001 48.6037 112.864 48.6224 112.967 48.5484L112.95 47.9361C112.685 47.7773 112.738 48.0891 112.714 47.6319L111.94 47.6435C111.925 47.902 111.925 47.7487 111.88 47.8135L111.31 48.356C111.115 48.5261 111.277 48.3253 111.138 48.5749C110.839 48.5996 110.771 48.5416 110.649 48.8284C109.747 48.9059 110.065 48.8958 109.852 49.1393C108.056 49.1772 109.504 49.4196 108.192 49.3512C107.691 49.325 108.027 49.3129 107.844 49.2114C107.527 49.0358 107.013 49.2628 106.668 49.0345L105.59 48.2765C105.581 48.2677 105.57 48.2539 105.561 48.2452L105.501 48.1838C105.432 48.1175 105.451 48.1455 105.371 48.0678L105.125 47.8242C105.052 47.7499 105.093 47.7851 105.036 47.7241L104.862 47.5357C104.786 47.4342 104.852 47.4951 104.765 47.3885L104.379 46.982C104.325 46.894 104.318 46.7076 104.291 46.5851C104.217 46.2538 104.073 46.3104 104.047 45.854L103.818 45.7316L103.83 43.075L104.053 43.0607L104.078 42.3019L104.316 42.1794L104.329 41.8121C104.642 41.6431 104.415 41.8794 104.604 41.5878L105.731 40.4392C105.741 40.4302 105.755 40.4181 105.764 40.4092L105.851 40.3164C105.912 40.2644 105.857 40.2783 105.995 40.2325C106.004 40.2292 106.159 40.2016 106.194 40.189C106.567 40.0517 106.225 40.2283 106.423 39.956L107.087 39.9028L107.158 39.6945Z" fill="#1597D5"></path><path fill-rule="evenodd" clip-rule="evenodd" d="M63.728 39.362C63.7416 39.3708 63.7632 39.3767 63.7724 39.3818C63.9602 39.4861 63.9345 39.5062 64.1363 39.7016L64.2882 39.919L65.511 39.9297L65.5213 47.8134C65.608 47.8907 65.5295 47.8276 65.6313 47.8892C65.7524 47.9627 65.6198 47.869 65.7261 47.9359L65.7651 48.7933C65.8378 48.8588 65.6484 48.8657 65.9808 48.8784L66.0222 49.3392C66.2855 49.4933 66.5011 49.7212 66.7398 49.9559C66.7488 49.9649 66.7624 49.9778 66.7706 49.9869C66.8404 50.0649 66.7917 50.1036 66.8606 50.1355L67.2278 50.1627C67.3327 50.2888 67.2615 50.2359 67.35 50.3878L68.7588 50.4233C69.0724 50.4278 70.1519 50.5023 70.3512 50.2676C70.4717 50.1256 70.2365 50.1695 70.846 50.1341L70.8648 49.3806C70.5706 49.3717 70.6323 49.4361 70.6241 49.142L68.1465 49.1317C68.1161 49.1028 68.0554 49.015 68.0541 49.0135L67.8419 48.844C67.8326 48.8352 67.8192 48.8225 67.811 48.8133C67.8031 48.8045 67.7918 48.7891 67.7851 48.7803C67.7672 48.7565 67.7604 48.7055 67.7172 48.6399L67.3103 48.5813C67.2837 48.0754 67.3402 47.9667 67.1707 47.8618C66.8664 47.6736 67.2325 47.9164 67.0745 47.8133C66.9649 45.9893 67.0244 42 67.0529 39.9188L70.6033 39.9187C70.6225 39.4971 70.5465 39.8428 70.7544 39.6396L71.0645 38.9943C70.7949 38.8619 70.8476 39.0812 70.832 38.695L67.0512 38.6566L67.0098 35.1023C66.9106 35.0992 66.7361 35.0911 66.6495 35.0427C66.4695 34.9419 66.6251 34.9955 66.4925 34.8375L66.0639 34.8499C65.984 34.9523 66.0194 34.9403 65.9465 35.0171C65.524 35.4624 65.9772 35.3185 65.5253 35.3327L65.4824 38.6568L64.0429 38.6847C64.0346 38.6988 64.0313 38.7212 64.0267 38.7309C63.9804 38.8283 64.0331 38.9311 63.7436 38.939L63.728 39.362Z" fill="#1597D5"></path><path fill-rule="evenodd" clip-rule="evenodd" d="M85.8602 50.1897C86.0629 50.3904 85.7344 50.3288 86.1464 50.3999C86.38 50.4403 86.6842 50.374 86.9344 50.3673C86.9346 50.3593 87.0957 34.5242 86.9277 33.5483L85.691 33.5789C85.5967 36.077 85.644 38.6339 85.6437 41.1381C85.6434 43.4961 85.5724 47.8507 85.6841 50.0794L85.8602 50.1897Z" fill="#1597D5"></path><path fill-rule="evenodd" clip-rule="evenodd" d="M92.47 1.5647C93.7076 1.5647 94.7201 2.57746 94.7201 3.81481V28.3763C94.7201 29.6136 93.7076 30.6264 92.47 30.6264C91.2324 30.6264 90.2199 29.6138 90.2199 28.3763V27.116C88.456 29.2529 85.9129 30.5942 83.0857 30.5942C77.76 30.5942 73.4423 25.8344 73.4423 19.9631C73.4423 14.0919 77.7599 9.3321 83.0857 9.3321C85.9129 9.3321 88.456 10.6733 90.2199 12.8103V3.81491C90.2199 2.57735 91.2324 1.5647 92.47 1.5647ZM84.0155 13.1686C87.3344 13.1686 90.0251 16.257 90.0251 20.0667C90.0251 23.8765 87.3344 26.9649 84.0155 26.9649C80.6965 26.9649 78.0058 23.8765 78.0058 20.0667C78.0058 16.257 80.6965 13.1686 84.0155 13.1686Z" fill="#19476B"></path><path fill-rule="evenodd" clip-rule="evenodd" d="M67.8163 9.45972C69.0538 9.45972 70.0664 10.4724 70.0664 11.7098V28.3763C70.0664 29.6138 69.0538 30.6264 67.8163 30.6264C66.5787 30.6264 65.5662 29.6139 65.5662 28.3763V11.7098C65.5662 10.4723 66.5787 9.45972 67.8163 9.45972Z" fill="#19476B"></path><path fill-rule="evenodd" clip-rule="evenodd" d="M144.641 1.5647C145.878 1.5647 146.891 2.57746 146.891 3.81481V28.3763C146.891 29.6136 145.878 30.6264 144.641 30.6264C143.403 30.6264 142.391 29.6138 142.391 28.3763V3.81481C142.391 2.57725 143.403 1.5647 144.641 1.5647Z" fill="#19476B"></path><path fill-rule="evenodd" clip-rule="evenodd" d="M106.178 13.1433L109.363 13.1569L109.486 13.3649L110.128 13.4241L110.15 13.632L110.649 13.6787C110.662 13.7103 110.695 13.8131 110.699 13.8196C110.774 13.9307 110.737 13.8649 110.828 13.9431C110.839 13.9522 110.855 13.9614 110.866 13.9706C111.153 14.221 110.785 14.1294 111.415 14.2137L111.474 14.6203C111.984 14.901 111.757 15.0765 112.202 15.2332L112.262 15.7124C112.489 15.7255 112.492 15.5727 112.515 16.3963C112.731 16.524 112.689 16.3372 112.744 16.6942C112.769 16.8601 112.751 17.0577 112.764 17.234L112.991 17.2338L112.98 18.5496L102.512 18.5385C102.48 18.2514 102.403 17.7594 102.553 17.5356C102.727 17.2761 102.676 17.6877 102.732 17.2594C102.75 17.1192 102.736 16.8801 102.736 16.7308C102.837 16.6775 102.868 16.6814 102.965 16.6411C103.016 15.9585 103.07 16.0948 103.197 15.9188C103.42 15.6099 103.071 15.8693 103.459 15.4077C103.51 15.3465 103.542 15.5522 103.576 14.9564C104.043 14.9393 103.618 15.023 103.869 14.7613L104.143 14.4764C104.152 14.4675 104.166 14.4558 104.174 14.4471L104.354 14.264C104.451 14.1791 104.376 14.2531 104.458 14.1892C104.468 14.1812 104.484 14.1719 104.494 14.1637C104.763 13.9402 104.46 14.0649 104.759 13.9403C105.165 13.7715 104.888 13.9925 105.137 13.6776L105.504 13.6351C105.513 13.623 105.523 13.6045 105.527 13.5968L105.627 13.4167L106.055 13.3912L106.178 13.1433ZM106.546 9.55652L105.297 9.57883L105.281 9.80763L104.34 9.85783C104.283 9.95107 104.296 9.82973 104.29 10.0695L103.782 10.0953C103.783 10.3365 103.789 10.2236 103.728 10.3184C102.829 10.3591 103.861 10.5515 102.565 10.6236C102.438 10.9726 102.567 10.7002 102.438 10.8212C102.357 10.8973 102.407 10.8332 102.335 10.905L102.202 11.065C102.193 11.0741 102.18 11.0861 102.17 11.0952L101.469 11.7583C101.46 11.7663 101.448 11.7795 101.439 11.7871C101.43 11.7945 101.416 11.8056 101.407 11.8128C101.337 11.8682 101.385 11.8125 101.298 11.883L100.79 12.1446C100.638 12.4408 100.918 12.4126 100.509 12.4264C100.445 12.8384 100.528 12.7328 100.312 12.9151C100.083 13.1085 99.809 13.3905 99.7097 13.6661C99.62 13.9149 99.5432 13.94 99.386 14.1322C99.2681 14.2764 99.1636 14.4251 98.9889 14.4977L98.9094 15.4156C98.8981 15.426 98.8275 15.4536 98.8167 15.4626C98.8096 15.4684 98.7935 15.481 98.7859 15.4883C98.6004 15.6671 98.8755 15.7085 98.4809 15.7297C98.4723 16.4653 98.3453 16.2236 98.2419 16.5955C98.1945 16.7666 98.2217 16.9671 98.1771 17.0882C98.0267 17.4962 97.9867 17.0516 97.9841 17.4985C97.9778 18.5481 97.9987 18.3855 97.7078 18.5397C97.7003 19.0379 97.6311 21.0219 97.7074 21.4057C97.7672 21.7063 97.7576 21.4699 97.8656 21.6374L98.0398 22.0838C98.1488 22.2512 98.1325 21.8739 98.1584 23.0718C98.2992 23.15 98.2509 23.0518 98.4206 23.1628L98.4788 24.2966C98.6699 24.4299 98.6877 24.5795 98.9124 24.6638L98.9361 25.0926C99.0728 25.1996 98.7605 25.1624 99.1668 25.1755L99.2159 25.8275L99.7227 26.4622C99.8184 26.7072 99.8826 26.6941 100.047 26.8733L100.742 27.596C100.751 27.6053 100.763 27.6188 100.773 27.6279L100.923 27.7768C100.931 27.786 100.94 27.802 100.947 27.8112L101.485 28.3134C101.494 28.322 101.506 28.3357 101.515 28.3444C101.524 28.3531 101.536 28.3667 101.544 28.3755L101.896 28.6977C102.077 28.8601 102.226 28.9363 102.32 29.168C103.062 29.2152 102.569 29.2648 102.892 29.4165C103.214 29.5683 103.168 29.3971 103.361 29.7144L103.728 29.7399C103.792 29.8129 103.757 29.758 103.81 29.8615C103.812 29.8652 103.832 29.9246 103.851 29.9623C104.021 29.9684 104.174 29.9301 104.274 30.0635C104.282 30.0738 104.314 30.1259 104.326 30.1371C104.452 30.2598 104.814 30.223 105.015 30.231L105.14 30.4151C105.341 30.5566 105.81 30.47 106.056 30.4863L106.178 30.7026C107.585 30.7115 109.006 30.7764 110.412 30.7144C111.048 30.6864 110.197 30.4701 111.629 30.4626L111.751 30.2417L112.425 30.2027L112.547 29.9864L112.966 29.9608C112.967 29.6218 112.972 29.8358 113.037 29.7481C113.272 29.7269 113.451 29.8138 113.467 29.5136L113.956 29.4593C113.966 29.4454 113.986 29.373 113.993 29.3616C114.166 29.0924 114.172 29.2908 114.323 28.9722L114.691 28.9423C114.761 28.9088 114.707 28.9234 114.756 28.8291C114.827 28.6885 114.725 28.8566 114.813 28.7109L115.262 28.6642L115.323 28.2385C115.632 28.2185 115.553 28.3007 115.571 27.9851L115.976 27.9265L116.228 27.6181C116.409 27.2833 116.265 26.0877 116.249 25.7051C115.984 25.6029 116.038 25.5814 115.867 25.3837C115.78 25.2819 115.788 25.5677 115.777 25.1736C115.634 25.1678 115.38 25.1473 115.239 25.1291C115.1 25.1112 115.147 25.1375 115.07 25.0811L114.936 24.8884L113.833 24.9197L113.503 25.2474C113.494 25.2549 113.482 25.2683 113.473 25.276L113.16 25.6254L112.793 25.6643C112.606 25.9501 112.898 25.7926 112.513 25.9233C112.093 26.0658 112.408 25.889 112.18 26.1852L111.718 26.2248L111.652 26.643L111.016 26.6642L110.894 26.8931L109.896 26.9344L109.896 27.1468C109.124 27.1483 107.815 27.2216 107.093 27.1497C106.934 27.1338 106.919 27.1052 106.845 27.0003L106.178 26.8953C106.08 26.7542 106.269 27.0541 106.128 26.8001L106.082 26.7192C106.077 26.71 106.066 26.6896 106.056 26.676L105.627 26.6426C105.627 26.6438 105.564 26.4666 105.262 26.2516L104.406 25.6476C104.396 25.6401 104.38 25.6306 104.371 25.6224L104.087 25.3466C104.078 25.3376 104.066 25.3242 104.057 25.3151L103.815 25.0689C103.803 25.0558 103.769 25.015 103.757 25.0018C103.748 24.9924 103.736 24.9788 103.727 24.9696L103.307 24.6026L103.265 24.1742C103.251 24.163 103.171 24.1342 103.16 24.1256C102.998 24.0039 103.043 23.8223 102.793 23.5224C102.784 23.5118 102.774 23.496 102.765 23.4854C102.673 23.3753 102.695 23.3893 102.546 23.3164L102.401 22.8013C102.277 22.6971 102.294 22.7839 102.289 22.278C102.285 21.9783 102.301 21.7008 102.311 21.4044C102.535 21.4041 102.413 21.365 102.515 21.5671L115.79 21.4778C115.854 21.3924 115.841 21.3979 115.871 21.3765C116.011 21.2771 116.587 21.2888 116.773 21.273C116.938 20.8988 116.761 21.1817 117.06 20.9892L117.11 20.6227L117.333 20.4992C117.359 19.9064 117.243 19.9283 117.537 19.7302C117.546 19.7239 117.568 19.7143 117.581 19.703L117.456 18.5212C117.318 18.4004 117.422 18.6007 117.363 18.3961L117.294 16.2295C116.72 16.2104 117.408 15.9886 116.861 15.949L116.814 15.2321C116.539 15.011 116.679 15.3542 116.572 14.9541C116.53 14.795 116.521 14.6125 116.517 14.4422C116.12 14.4177 116.422 14.2982 116.076 14.1301L116.033 13.6389C115.774 13.6381 115.895 13.641 115.804 13.5788L115.764 13.2119L115.54 13.0889L115.502 12.6984C114.777 12.6209 115.354 12.5465 114.778 12.3541L114.718 11.9261C114.33 11.7944 114.591 12.0042 114.446 11.6534L114.079 11.5988L113.405 10.8802L113.038 10.8449C112.871 10.5171 113.159 10.7111 112.764 10.5963C112.318 10.4663 112.653 10.6575 112.425 10.3377L111.958 10.3067C111.96 9.91582 111.968 10.1932 111.873 10.0844L111.261 10.0514L111.139 9.81573C110.494 9.8191 110.668 9.9395 110.343 9.57883L109.24 9.55809L109.118 9.33929L106.668 9.33203C106.619 9.39423 106.633 9.3675 106.583 9.46285C106.506 9.61208 106.594 9.47916 106.546 9.55652Z" fill="#19476B"></path><path fill-rule="evenodd" clip-rule="evenodd" d="M126.273 20.8308C126.453 20.8299 126.773 20.8648 126.927 20.7868C127.342 20.5768 126.445 20.5758 128.531 20.5756C129.369 20.5755 130.205 20.5765 131.042 20.59L131.165 20.8201L132.135 20.8347L132.135 21.0419L133.063 21.0837L133.186 21.3077L133.652 21.334L133.658 23.5616C133.593 23.6201 133.437 23.441 133.394 24.5414C133.357 24.5702 133.264 24.6199 133.262 24.6222L133.161 24.7756C133.008 25.0129 133.109 24.8456 132.92 24.9706L132.887 25.3377C132.787 25.3999 132.814 25.3298 132.668 25.4931L132.463 25.7223C132.455 25.7312 132.443 25.7445 132.434 25.7534L132.083 26.1902L131.682 26.2266C131.648 26.5868 131.635 26.3696 131.537 26.4456L131.374 26.575C131.288 26.6504 131.346 26.6524 131.171 26.6959C131.09 26.7158 130.964 26.7116 130.879 26.7144C130.864 27.0986 130.902 26.8104 130.797 26.932C130.282 26.9571 130.454 26.9074 130.308 27.1675L129.144 27.2118C128.99 27.402 129.288 27.4802 128.042 27.4853C126.813 27.4904 127.093 27.398 126.939 27.2155L126.082 27.1891L125.959 26.9642L125.254 26.8979C125.238 26.5259 125.298 26.8325 125.075 26.6502L124.661 26.2603C124.653 26.2514 124.639 26.2395 124.63 26.2306L124.537 26.1378C124.352 25.9104 124.555 25.9214 124.238 25.9065L124.214 25.4451L123.957 25.3379L123.964 24.9705C123.697 24.728 123.817 25.0348 123.736 24.7644L123.725 23.656L123.936 23.6347L123.967 22.8882C124.217 22.7055 124.173 22.9703 124.223 22.3983L124.425 22.2638C124.498 22.1814 124.436 22.2321 124.508 22.1514C124.517 22.1421 124.529 22.129 124.538 22.1203C124.546 22.1119 124.56 22.101 124.568 22.0931C124.672 21.991 124.635 22.0361 124.728 21.9117L124.951 21.6962C124.961 21.6881 124.976 21.6778 124.987 21.6699L125.304 21.3738C125.443 21.2349 125.457 21.3287 125.531 21.0957L126.272 21.0413L126.273 20.8308ZM126.225 9.80623L125.041 9.82086L124.875 10.0378L123.701 10.1126C123.701 10.4627 123.707 10.2289 123.632 10.3187C122.748 10.3396 123.731 10.548 122.454 10.5838C122.342 10.7517 122.424 10.6908 122.346 10.8485L121.733 10.8885C121.548 11.2468 121.763 11.001 121.443 11.1907L121.388 11.5569L121.177 11.6192L121.185 13.3344C121.215 13.3444 121.303 13.3857 121.308 13.3894L121.978 14.1232C122.356 14.1375 122.623 14.2268 123.021 14.2197C123.401 14.2128 123.701 14.1388 124.122 14.1125C124.174 14.0265 124.18 13.9836 124.237 13.8901L124.974 13.8755C124.983 13.6444 124.961 13.7644 125.04 13.6608L126.261 13.6183C126.266 13.316 126.27 13.4869 126.326 13.4201L129.756 13.4024L129.875 13.58C130.08 13.7196 130.547 13.6407 130.797 13.6518C130.886 13.7642 130.853 13.6244 130.869 13.874L131.532 13.9172C131.668 14.1655 131.813 14.2001 132.114 14.2222L132.169 14.6568L132.612 14.7082C132.627 15.1354 132.557 14.853 132.855 14.9875L132.899 15.4193L133.149 15.4635L133.199 16.1983C133.434 16.2133 133.304 16.1852 133.413 16.2737L133.439 17.262L133.644 17.2871L133.646 18.5098L132.695 18.5168L132.591 18.263L131.629 18.2447C131.619 17.8796 131.477 18.0102 130.92 18.0083C130.563 18.0071 130.231 17.9698 129.878 17.9577L129.756 17.7616L126.011 17.7606C126.012 18.0305 126.003 17.9019 125.959 17.9678L124.55 18.0238L124.494 18.2396L123.754 18.2681L123.66 18.5265L123.179 18.5237L123.161 18.7465C122.737 18.7598 122.748 18.728 122.652 18.992L122.161 19.0426C122.162 19.3416 122.151 19.1899 122.101 19.2575L121.593 19.4994C121.583 19.5085 121.567 19.5181 121.556 19.5272L121.363 19.7102C121.354 19.719 121.341 19.7318 121.333 19.7405L120.726 20.343C120.717 20.3524 120.705 20.3654 120.696 20.3749C120.552 20.5341 120.83 20.5515 120.404 20.5646L120.364 21.0454L120.152 21.046L120.104 21.5401L119.897 21.5864L119.875 22.0302C119.76 22.118 119.874 22.0818 119.654 22.0927C119.649 22.3101 119.643 22.5958 119.622 22.803C119.573 23.3014 119.681 23.3348 119.395 23.3569L119.386 25.3374L119.609 25.4598L119.644 26.317C119.697 26.5364 119.878 26.4087 119.903 27.1132L120.124 27.2357L120.195 27.6213C120.2 27.6388 120.226 27.6361 120.232 27.641L120.657 28.13C120.666 28.1403 120.678 28.1546 120.687 28.1647L120.748 28.2278C120.757 28.2368 120.77 28.2486 120.779 28.2576L121.149 28.5218L121.203 28.933C121.654 28.9581 121.255 29.0454 121.609 29.1836C122.002 29.3366 121.765 29.1026 121.978 29.4768L122.402 29.5234C122.434 30.0685 122.706 29.3992 122.725 29.9624L123.226 29.9831L123.226 30.2054C123.928 30.2174 123.839 30.1651 123.999 30.4548L124.918 30.4943L125.017 30.7163L128.47 30.6984C128.551 30.5591 128.47 30.6334 128.592 30.4877L129.265 30.4571C129.277 30.4405 129.263 30.3242 129.388 30.2596L130 30.2048C130.278 29.8592 130.374 30.1663 130.389 29.7783L131.296 29.4409C131.498 29.2594 131.523 29.306 131.766 29.1905C132.061 29.0499 131.704 28.9955 132.327 28.9158C132.464 28.5291 132.241 28.79 132.601 28.6443L132.658 28.2782C132.852 28.1478 132.87 28.0355 133.017 27.9718C133.2 27.8931 133.452 27.9681 133.64 27.993L133.675 29.3796C133.707 29.4941 133.762 29.4452 133.832 29.5179C133.84 29.5271 133.853 29.5406 133.862 29.5504L134.217 29.9366C134.648 30.3259 134.722 30.1018 134.744 30.4439C135.195 30.465 136.255 30.5243 136.615 30.451L137.504 29.585C137.768 29.3041 137.674 29.2241 137.846 28.9591C138.127 28.5236 137.978 25.5681 137.978 24.9086L137.954 16.8245L137.741 16.7242L137.731 15.5385L137.508 15.4161L137.469 14.4976L137.254 14.375L137.2 13.7014L136.987 13.6549L136.958 13.2116C136.846 13.1358 136.934 13.1655 136.728 13.1608L136.7 12.7217C136.677 12.7059 136.568 12.6471 136.566 12.645C136.557 12.6375 136.543 12.6234 136.535 12.6149L135.777 11.8512C135.671 11.7218 135.704 12.0945 135.692 11.6245C135.356 11.6161 135.522 11.5825 135.256 11.3188C134.946 11.0122 135.023 11.0064 134.583 10.8389L134.046 10.5701C133.797 10.456 134.02 10.5811 133.859 10.3535C133.677 10.3436 133.327 10.3682 133.194 10.2663L133.089 10.1183C133.082 10.1082 133.074 10.0854 133.063 10.0724L132.45 10.0611L132.401 9.84107L131.409 9.81202L131.287 9.60027L126.238 9.57617L126.225 9.80623Z" fill="#19476B"></path><path d="M67.7894 6.62655C69.3542 6.62655 70.6227 5.54239 70.6227 4.205C70.6227 2.86761 69.3542 1.78345 67.7894 1.78345C66.2247 1.78345 64.9562 2.86761 64.9562 4.205C64.9562 5.54239 66.2247 6.62655 67.7894 6.62655Z" fill="#19476B"></path></svg>