<svg width="16" height="16" viewBox="0 0 20 20" fill="none" xmlns="http://www.w3.org/2000/svg" class="fill-current">
    <g clip-path="url(#clip0_1264_2)">
        <path d="M19.6029 0.367575C19.6029 0.367575 20.6428 5.06065 19.3571 9.23077L16.1615 8.93015C16.1615 8.93015 15.7337 6.20754 14.5034 5.07312C13.2731 3.93872 10.3245 3.5428 10.3245 3.5428L10 0.589919C14.5182 -0.592139 19.6029 0.367575 19.6029 0.367575Z" fill="currentColor"></path>
        <path d="M6.12153 6.48799L3.26376 7.69569V3.07715H0V19.9908H3.26376V11.0075L6.64543 9.57699C10.1948 9.57699 9.81315 11.8898 9.81315 12.8471V20.0002H13.0769V12.8471C13.0769 6.091 7.57412 6.48799 6.12153 6.48799Z" fill="currentColor"></path>
    </g>
    <defs>
        <clipPath id="clip0_1264_2">
            <rect width="20" height="20" fill="white"></rect>
        </clipPath>
    </defs>
</svg>